<svg width="70" height="70" viewBox="0 0 70 70" fill="none" xmlns="http://www.w3.org/2000/svg">
<path d="M42.6417 24.3541C41.4167 25.1708 37.5375 27.3874 36.9542 27.8249C35.8167 28.7291 34.7667 28.6708 33.6292 27.7958C33.0459 27.3291 29.1667 25.1124 27.9417 24.3249C26.5417 23.4208 26.6292 22.2833 28.175 21.6416C32.9584 19.6291 37.7417 19.7749 42.4959 21.7291C43.925 22.3416 43.9834 23.4791 42.6417 24.3541ZM63.7 45.5874C60.9875 39.4916 57.2834 33.9499 52.5 29.0791C51.0211 27.5431 49.9572 25.6562 49.4084 23.5958C49.1167 22.6333 48.9125 21.6416 48.7084 20.6499C48.125 18.0833 47.8625 15.4583 46.6667 13.0374C44.5375 8.42908 40.8334 6.03742 35.4667 5.83325C30.1875 5.97909 26.25 8.19575 23.9459 12.8333C23.3334 14.0874 22.8959 15.3999 22.6042 16.7416C22.1084 18.9583 21.6709 21.2624 21.1459 23.5083C20.7084 25.4041 19.8334 27.0374 18.3459 28.4958C13.65 33.0749 9.88753 38.3249 7.02919 44.0999C6.62086 44.9458 6.21253 45.7916 5.95003 46.6666C5.39586 48.5916 6.79586 49.9333 8.83753 49.4666C10.1209 49.2041 11.4042 48.9416 12.6292 48.5624C13.825 48.1249 14.2917 48.4166 14.5834 49.5833C16.4792 55.8541 20.6209 60.2583 26.95 62.7083C38.9667 67.2583 52.9959 60.7833 56.0292 49.3499C56.2334 48.5624 56.525 48.2708 57.4 48.5624C58.7417 48.9708 60.1125 49.2624 61.4834 49.5833C62.9125 49.8458 63.9625 49.1166 64.1667 47.7166C64.2542 46.9583 63.9917 46.2874 63.7 45.5874Z" fill="white"/>
</svg>
