<svg width="237" height="135" viewBox="0 0 237 135" fill="none" xmlns="http://www.w3.org/2000/svg">
<path d="M17.4689 135C15.2489 134.963 13.32 134.633 11.6823 134.009C10.081 133.385 8.84362 132.413 7.97018 131.092C7.09673 129.807 6.66001 128.193 6.66001 126.248V118.156C6.66001 116.908 6.40526 115.917 5.89575 115.183C5.38624 114.413 4.64017 113.862 3.65755 113.532C2.67492 113.165 1.45574 112.982 0 112.982V108.963C1.45574 108.927 2.67492 108.743 3.65755 108.413C4.64017 108.083 5.38624 107.55 5.89575 106.817C6.40526 106.046 6.66001 105.055 6.66001 103.844V95.6972C6.66001 94.2294 6.91477 92.9633 7.42427 91.8991C7.97018 90.7982 8.71624 89.8991 9.66247 89.2018C10.6451 88.4679 11.7915 87.9174 13.1017 87.5505C14.4118 87.1835 15.8676 87 17.4689 87V90.9633C16.2315 91 15.1579 91.2018 14.2481 91.5688C13.3382 91.9358 12.6285 92.4862 12.119 93.2202C11.6459 93.9541 11.4094 94.9266 11.4094 96.1376V104.064C11.4094 105.936 10.9181 107.44 9.93543 108.578C8.9528 109.679 7.46067 110.413 5.45903 110.78V111.11C7.49706 111.477 8.98919 112.229 9.93543 113.367C10.9181 114.468 11.4094 115.954 11.4094 117.826V125.917C11.4094 127.092 11.6459 128.046 12.119 128.78C12.5922 129.55 13.2836 130.101 14.1935 130.431C15.1033 130.798 16.1951 131 17.4689 131.037V135Z" fill="#C5412B"/>
<path d="M23.0307 126.303V94.1927H29.8545V110.248H38.9528V94.1927H45.7766V126.303H38.9528V117.128H29.8545V126.303H23.0307Z" fill="white"/>
<path d="M66.4498 110.248V101.073H57.3515V110.248H66.4498ZM50.5277 126.303V94.1927H73.2736V126.303H66.4498V117.128H57.3515V126.303H50.5277Z" fill="white"/>
<path d="M78.0247 126.303V94.1927H93.9468V119.422H96.2214V94.1927H103.045V126.303H87.123V101.073H84.8484V126.303H78.0247Z" fill="white"/>
<path d="M123.718 119.422V103.367L121.444 101.073H114.62V119.422H123.718ZM107.796 126.303V94.1927H123.718L130.542 101.073V126.303H107.796Z" fill="white"/>
<path d="M135.293 126.303V94.1927H142.117V119.422H158.039V126.303H135.293Z" fill="white"/>
<path d="M162.79 126.303V94.1927H185.536V101.073H169.614V105.661H185.536V112.541H169.614V119.422H185.536V126.303H162.79Z" fill="white"/>
<path d="M206.209 110.248V101.073H197.111V110.248H206.209ZM190.287 126.303V94.1927H213.033V117.128H206.209V119.422H213.033V126.303H199.386V117.128H197.111V126.303H190.287Z" fill="white"/>
<path d="M219.531 131.037C220.805 131 221.879 130.798 222.752 130.431C223.662 130.064 224.353 129.495 224.826 128.725C225.336 127.991 225.591 127.037 225.591 125.862V117.881C225.591 116.009 226.082 114.523 227.065 113.422C228.047 112.284 229.539 111.532 231.541 111.165V110.835C229.539 110.468 228.047 109.734 227.065 108.633C226.082 107.495 225.591 105.991 225.591 104.119V96.0826C225.591 94.8716 225.354 93.8991 224.881 93.1651C224.408 92.4312 223.716 91.8807 222.807 91.5138C221.933 91.1468 220.841 90.9633 219.531 90.9633V87C221.205 87 222.697 87.1835 224.008 87.5505C225.354 87.9174 226.5 88.4679 227.447 89.2018C228.393 89.8991 229.103 90.7982 229.576 91.8991C230.085 93 230.34 94.2844 230.34 95.7523V103.789C230.34 105.037 230.595 106.046 231.104 106.817C231.614 107.55 232.36 108.101 233.342 108.468C234.361 108.798 235.581 108.963 237 108.963V112.982C235.581 112.982 234.361 113.165 233.342 113.532C232.36 113.862 231.614 114.394 231.104 115.128C230.595 115.862 230.34 116.853 230.34 118.101V126.303C230.34 128.248 229.885 129.862 228.975 131.147C228.065 132.431 226.792 133.385 225.154 134.009C223.553 134.67 221.678 135 219.531 135V131.037Z" fill="#C5412B"/>
<path d="M39.7509 38.5C40.8555 38.5 41.7509 37.6046 41.7509 36.5V18.5C41.7509 17.3954 40.8555 16.5 39.7509 16.5H22.179C21.0744 16.5 20.179 17.3954 20.179 18.5V36.5C20.179 37.6046 21.0744 38.5 22.179 38.5H39.7509ZM6 77C4.89543 77 4 76.1046 4 75V2C4 0.895431 4.89543 0 6 0H55.9299C57.0345 0 57.9299 0.89543 57.9299 2V53C57.9299 54.1046 57.0345 55 55.9299 55H43.7509C42.6464 55 41.7509 55.8954 41.7509 57V58.5C41.7509 59.6046 42.6464 60.5 43.7509 60.5H55.9299C57.0345 60.5 57.9299 61.3954 57.9299 62.5V75C57.9299 76.1046 57.0345 77 55.9299 77H27.572C26.4674 77 25.572 76.1046 25.572 75V57C25.572 55.8954 24.6765 55 23.572 55H22.179C21.0744 55 20.179 55.8954 20.179 57V75C20.179 76.1046 19.2835 77 18.179 77H6Z" fill="white"/>
<path d="M65.1544 77C64.0498 77 63.1544 76.1046 63.1544 75V2C63.1544 0.895431 64.0498 0 65.1544 0H77.3333C78.4379 0 79.3333 0.89543 79.3333 2V58.5C79.3333 59.6046 80.2288 60.5 81.3333 60.5H98.9053C100.01 60.5 100.905 59.6046 100.905 58.5V2C100.905 0.895432 101.801 0 102.905 0H115.084C116.189 0 117.084 0.895431 117.084 2V75C117.084 76.1046 116.189 77 115.084 77H65.1544Z" fill="white"/>
<path d="M124.309 77C123.204 77 122.309 76.1046 122.309 75V62.5C122.309 61.3954 123.204 60.5 124.309 60.5H158.06C159.164 60.5 160.06 59.6046 160.06 58.5V46C160.06 44.8954 159.164 44 158.06 44H124.309C123.204 44 122.309 43.1046 122.309 42V2C122.309 0.895431 123.204 0 124.309 0H174.239C175.343 0 176.239 0.895431 176.239 2V14.5C176.239 15.6046 175.343 16.5 174.239 16.5H140.488C139.383 16.5 138.488 17.3954 138.488 18.5V25.5C138.488 26.6046 139.383 27.5 140.488 27.5H174.239C175.343 27.5 176.239 28.3954 176.239 29.5V75C176.239 76.1046 175.343 77 174.239 77H124.309Z" fill="white"/>
<path d="M199.642 77C198.537 77 197.642 76.1046 197.642 75V18.5C197.642 17.3954 196.747 16.5 195.642 16.5H183.463C182.359 16.5 181.463 15.6046 181.463 14.5V2C181.463 0.895431 182.359 0 183.463 0H228C229.105 0 230 0.895431 230 2V14.5C230 15.6046 229.105 16.5 228 16.5H215.821C214.716 16.5 213.821 17.3954 213.821 18.5V75C213.821 76.1046 212.926 77 211.821 77H199.642Z" fill="white"/>
</svg>
